<svg width="20" height="20" viewBox="0 0 75 72" fill="none" xmlns="http://www.w3.org/2000/svg">
  <path d="M21.25 21.25C24.0679 21.25 26.7704 20.1306 28.763 18.138C30.7556 16.1454 31.875 13.4429 31.875 10.625C31.875 7.80707 30.7556 5.10456 28.763 3.11199C26.7704 1.11942 24.0679 0 21.25 0C18.4321 0 15.7296 1.11942 13.737 3.11199C11.7444 5.10456 10.625 7.80707 10.625 10.625C10.625 13.4429 11.7444 16.1454 13.737 18.138C15.7296 20.1306 18.4321 21.25 21.25 21.25ZM0 33.2031C0 31.4419 0.699635 29.7529 1.94499 28.5075C3.19035 27.2621 4.87942 26.5625 6.64062 26.5625H23.5742C22.9139 28.2558 22.5761 30.0576 22.5781 31.875C22.5781 36.8156 25.0298 41.1852 28.7858 43.8281H22.5781C20.6357 43.8279 18.7303 44.3601 17.0692 45.367C15.4081 46.3739 14.0548 47.8168 13.1564 49.5391C8.06703 48.2295 4.81047 45.6822 2.79969 42.7922C-3.1665e-07 38.768 0 34.6003 0 33.8672V33.2031ZM61.2186 49.5391C66.308 48.2295 69.5645 45.6822 71.5753 42.7922C74.375 38.768 74.375 34.5977 74.375 33.8672V33.2031C74.375 31.4419 73.6754 29.7529 72.43 28.5075C71.1846 27.2621 69.4956 26.5625 67.7344 26.5625H50.8008C51.4436 28.2094 51.7969 29.9997 51.7969 31.875C51.7969 36.8156 49.3452 41.1852 45.5892 43.8281H51.7969C53.7393 43.8279 55.6447 44.3601 57.3058 45.367C58.9669 46.3739 60.3202 47.8168 61.2186 49.5391ZM63.75 10.625C63.75 13.4429 62.6306 16.1454 60.638 18.138C58.6454 20.1306 55.9429 21.25 53.125 21.25C50.3071 21.25 47.6046 20.1306 45.612 18.138C43.6194 16.1454 42.5 13.4429 42.5 10.625C42.5 7.80707 43.6194 5.10456 45.612 3.11199C47.6046 1.11942 50.3071 0 53.125 0C55.9429 0 58.6454 1.11942 60.638 3.11199C62.6306 5.10456 63.75 7.80707 63.75 10.625ZM15.9375 54.4531C15.9375 52.6919 16.6371 51.0029 17.8825 49.7575C19.1279 48.5121 20.8169 47.8125 22.5781 47.8125H51.7969C52.6689 47.8125 53.5325 47.9843 54.3381 48.318C55.1438 48.6517 55.8759 49.1409 56.4925 49.7575C57.1091 50.3741 57.5983 51.1062 57.932 51.9119C58.2657 52.7175 58.4375 53.5811 58.4375 54.4531V55.1172C58.4375 55.8477 58.4375 60.018 55.6378 64.0422C52.7159 68.2417 47.1644 71.7188 37.1875 71.7188C27.2133 71.7188 21.6591 68.2417 18.7372 64.0422C15.9375 60.018 15.9375 55.8503 15.9375 55.1172V54.4531ZM37.1875 42.5C40.0054 42.5 42.7079 41.3806 44.7005 39.388C46.6931 37.3954 47.8125 34.6929 47.8125 31.875C47.8125 29.0571 46.6931 26.3546 44.7005 24.362C42.7079 22.3694 40.0054 21.25 37.1875 21.25C34.3696 21.25 31.6671 22.3694 29.6745 24.362C27.6819 26.3546 26.5625 29.0571 26.5625 31.875C26.5625 34.6929 27.6819 37.3954 29.6745 39.388C31.6671 41.3806 34.3696 42.5 37.1875 42.5Z" fill="black"/>
</svg>
